<mxfile host="app.diagrams.net" modified="2025-03-20T09:33:06.477Z" agent="Mozilla/5.0 (Windows NT 10.0; Win64; x64) AppleWebKit/537.36 (KHTML, like Gecko) Chrome/134.0.0.0 Safari/537.36" version="24.6.3" etag="zcQm4vra_eyy3ppatNi2" type="github">
  <diagram name="Page-1" id="o01mz9rouBh8cbDRbIJN">
    <mxGraphModel>
      <root>
        <mxCell id="0" />
        <mxCell id="1" parent="0" />
      </root>
    </mxGraphModel>
  </diagram>
</mxfile>
